<?xml version="1.0" standalone="no"?>
<!DOCTYPE svg PUBLIC "-//W3C//DTD SVG 20010904//EN"
 "http://www.w3.org/TR/2001/REC-SVG-20010904/DTD/svg10.dtd">
<svg version="1.0" xmlns="http://www.w3.org/2000/svg"
 width="256.000000pt" height="256.000000pt" viewBox="0 0 256.000000 256.000000"
 preserveAspectRatio="xMidYMid meet">
<metadata>
Created by potrace 1.11, written by Peter Selinger 2001-2013
</metadata>
<g transform="translate(0.000000,256.000000) scale(0.100000,-0.100000)"
fill="#000000" stroke="none">
<path d="M863 2483 c-16 -13 -15 -13 7 -3 24 11 24 11 5 -5 -11 -9 -28 -14
-37 -11 -13 3 -18 -2 -18 -16 0 -18 -2 -19 -17 -7 -10 7 -15 10 -11 5 10 -12
-10 -46 -27 -46 -8 0 -15 -6 -15 -14 0 -7 -10 -16 -22 -20 -19 -5 -21 -8 -8
-16 13 -8 11 -11 -7 -16 -13 -4 -23 -13 -23 -20 0 -8 -7 -14 -15 -14 -8 0 -15
-8 -15 -19 0 -12 -7 -18 -17 -17 -10 0 -18 -6 -18 -14 0 -8 -8 -14 -18 -14
-11 1 -17 -5 -17 -18 0 -18 -2 -19 -17 -7 -11 10 -14 10 -9 2 5 -9 -1 -13 -18
-13 -14 0 -26 -5 -26 -11 0 -5 6 -7 13 -3 8 5 9 4 2 -4 -5 -6 -30 -12 -55 -14
-28 -3 -44 -9 -42 -16 1 -7 -7 -12 -18 -12 -10 0 -24 -8 -30 -17 -10 -16 -11
-16 -6 -1 3 12 1 15 -10 11 -7 -3 -14 -12 -14 -20 0 -9 -6 -13 -15 -10 -8 4
-17 2 -20 -4 -4 -5 -12 -6 -18 -2 -7 4 -5 -2 3 -12 8 -10 10 -16 3 -12 -6 4
-14 3 -18 -3 -4 -6 -10 -8 -15 -5 -4 3 -10 -2 -13 -10 -4 -10 -1 -12 11 -9 9
3 7 -1 -6 -8 -12 -8 -19 -17 -16 -21 4 -4 0 -7 -9 -7 -13 0 -17 -10 -18 -37
-1 -21 0 -45 1 -53 1 -11 -2 -11 -12 3 -15 21 -15 23 -21 -151 -2 -62 -7 -115
-11 -119 -3 -3 -6 -1 -6 5 0 7 -4 12 -9 12 -4 0 -7 -12 -5 -26 3 -32 -5 -56
-17 -48 -5 3 -9 2 -8 -3 2 -8 -6 -35 -22 -68 -6 -12 -8 -13 -5 -3 3 10 2 19
-2 22 -4 3 -9 -5 -9 -16 -1 -12 -7 -24 -14 -28 -8 -6 -8 -9 2 -13 10 -4 10 -6
-2 -6 -10 -1 -19 -13 -23 -32 -4 -21 -10 -28 -18 -23 -9 5 -9 2 1 -9 12 -15
12 -17 -2 -11 -12 4 -15 0 -13 -21 2 -14 -3 -33 -11 -41 -8 -8 -10 -14 -4 -14
6 0 11 -9 11 -20 0 -11 -5 -20 -11 -20 -5 0 -8 4 -4 9 3 5 1 12 -4 15 -5 4 -8
-2 -6 -11 2 -10 4 -22 4 -26 1 -5 5 -6 9 -3 9 6 10 5 13 -71 1 -46 4 -53 22
-53 17 0 18 -2 6 -17 -11 -13 -11 -15 -1 -9 9 5 13 3 11 -5 -3 -29 1 -38 18
-32 13 5 15 2 11 -15 -4 -12 -2 -22 4 -22 6 0 7 -8 4 -17 -5 -15 -4 -15 9 1
15 19 15 19 16 -5 1 -13 1 -27 0 -31 0 -5 9 -8 22 -9 12 0 16 -3 10 -6 -9 -3
-10 -10 -3 -23 5 -10 11 -31 12 -48 1 -17 6 -28 10 -26 9 6 10 -4 12 -88 1
-31 5 -60 9 -64 4 -4 1 -14 -6 -22 -10 -13 -9 -15 6 -9 13 5 16 3 10 -6 -13
-21 -11 -86 4 -91 7 -3 13 -15 13 -27 0 -16 4 -20 18 -15 14 5 13 3 -3 -10
-20 -16 -20 -16 4 -9 16 5 21 4 17 -4 -4 -6 -2 -19 3 -28 6 -10 11 -15 11 -11
0 4 17 -4 37 -18 20 -13 43 -22 50 -20 7 3 15 0 19 -6 4 -7 3 -8 -4 -4 -7 4
-10 2 -7 -6 5 -13 12 -15 71 -19 16 -1 22 -4 14 -9 -18 -11 3 -21 49 -23 34
-1 37 -3 23 -14 -15 -11 -13 -13 13 -14 17 -1 33 -1 38 0 4 0 7 -8 7 -20 0
-14 5 -19 14 -16 8 3 16 -2 19 -15 3 -11 10 -17 16 -13 10 5 15 -7 12 -27 0
-5 8 -8 19 -8 13 0 20 -7 20 -19 0 -11 5 -23 12 -27 7 -5 8 -3 3 7 -8 12 -6
12 8 1 9 -8 15 -17 14 -20 -1 -4 2 -7 6 -7 5 0 15 -15 22 -32 13 -30 31 -39
66 -35 4 1 5 -7 2 -16 -3 -12 2 -18 16 -20 50 -4 51 -5 39 -19 -9 -11 -8 -13
3 -11 8 2 17 10 21 18 5 12 7 12 7 -2 1 -20 21 -25 21 -5 0 8 2 9 8 1 9 -15
105 -15 114 0 5 8 8 7 8 -2 0 -7 5 -10 10 -7 6 4 8 12 4 18 -3 7 2 3 11 -8
l17 -20 -6 20 c-5 18 -1 20 52 20 41 0 60 5 69 16 14 19 81 19 92 0 4 -7 19
-10 34 -7 15 2 29 1 32 -3 2 -5 21 -7 41 -5 27 2 34 -1 30 -11 -3 -8 -1 -17 5
-20 5 -4 8 -1 7 6 -2 6 9 15 25 20 16 4 25 4 21 -2 -3 -5 -12 -9 -21 -9 -9 0
-13 -3 -9 -7 4 -4 50 -9 102 -10 76 -2 94 1 94 13 0 14 11 18 38 15 6 -1 12 3
12 9 0 6 5 8 10 5 6 -3 10 0 10 8 0 8 12 18 27 22 19 4 23 9 14 14 -9 6 -7 10
8 14 12 3 21 12 21 21 0 10 6 13 15 10 11 -4 15 0 15 17 0 12 3 19 7 16 9 -9
34 13 27 24 -3 5 2 9 10 9 9 0 15 5 14 12 -2 6 6 14 17 17 11 3 20 13 20 21 0
9 7 14 19 12 13 -3 17 1 13 11 -6 16 12 27 44 27 10 0 19 6 19 13 0 9 12 14
30 15 33 1 53 10 46 21 -4 6 10 10 52 13 6 1 12 7 12 15 0 7 5 13 11 13 5 0 7
-4 4 -10 -3 -5 -1 -10 4 -10 6 0 11 7 11 16 0 10 6 14 14 11 8 -3 16 2 19 15
3 12 10 17 17 13 7 -4 14 2 17 14 6 23 19 28 26 9 5 -12 11 36 8 56 -1 5 5 4
13 -4 17 -13 17 -13 19 63 1 27 2 27 15 10 13 -17 13 -17 10 2 -2 11 -7 23
-13 27 -6 5 -5 8 3 8 6 0 12 5 12 11 0 5 -4 8 -9 4 -5 -3 -13 0 -17 6 -4 8 -3
9 4 5 6 -3 16 3 22 14 8 14 8 20 0 20 -6 0 -8 5 -4 11 4 6 8 44 9 83 3 87 3
86 16 86 8 0 8 -5 -1 -15 -9 -10 -9 -15 -1 -15 6 0 11 3 12 8 1 7 6 55 8 84 1
11 6 15 16 12 11 -5 15 1 15 24 0 19 8 35 23 46 12 9 16 14 9 10 -21 -10 4 33
27 48 11 6 17 18 14 25 -3 8 0 11 9 8 9 -4 14 3 16 20 1 14 9 37 18 51 13 18
13 24 4 22 -9 -2 -15 10 -17 37 -2 27 0 35 6 26 5 -8 8 -23 6 -33 -2 -10 0
-16 5 -13 5 3 6 15 4 28 -3 12 -6 27 -6 34 -1 7 -5 10 -10 7 -8 -5 -10 2 -10
48 -1 15 -5 25 -10 22 -4 -3 -5 -10 -2 -16 4 -7 2 -8 -5 -4 -6 4 -9 11 -6 16
3 5 0 12 -6 16 -8 4 -7 9 2 15 10 6 11 9 2 9 -7 0 -13 9 -13 20 0 11 -5 20
-11 20 -5 0 -7 -5 -3 -12 5 -7 3 -8 -5 -3 -7 4 -11 18 -8 32 3 17 -1 28 -14
36 -11 7 -19 20 -19 29 0 10 -7 18 -16 18 -10 0 -14 6 -10 15 3 8 1 15 -5 15
-5 0 -7 11 -5 24 3 18 0 23 -12 19 -15 -3 -17 5 -17 59 1 35 -3 73 -7 86 -4
12 -3 22 2 22 5 0 7 10 4 23 -3 12 -6 39 -8 59 -1 21 -5 40 -9 44 -3 4 -5 -7
-3 -23 2 -16 1 -35 -3 -42 -4 -6 -8 10 -8 36 -1 89 -2 93 -22 93 -12 0 -18 7
-17 18 0 9 -5 16 -11 15 -7 -2 -13 4 -13 12 0 8 -5 15 -11 15 -5 0 -7 6 -3 13
5 7 2 7 -10 -2 -9 -8 -16 -10 -15 -5 4 24 -2 32 -23 26 -16 -4 -19 -2 -13 8 6
10 4 12 -10 6 -15 -6 -16 -4 -4 10 11 13 11 15 -2 14 -26 -4 -94 2 -81 7 27
11 9 23 -35 23 -42 0 -45 1 -28 14 19 13 19 14 0 13 -54 0 -65 3 -65 23 0 13
-5 18 -16 13 -10 -4 -17 1 -21 16 -3 11 -12 21 -19 21 -8 0 -14 7 -14 15 0 8
-7 15 -15 15 -8 0 -15 9 -15 19 0 11 -5 23 -12 27 -7 5 -9 2 -4 -7 4 -8 1 -6
-7 4 -9 10 -24 25 -34 34 -10 8 -13 12 -6 9 6 -4 15 -1 19 5 4 7 3 9 -4 5 -6
-3 -13 -2 -17 3 -3 6 -13 7 -23 4 -15 -6 -15 -5 -3 10 14 18 7 22 -27 18 -7
-1 -12 2 -11 6 4 21 -2 32 -15 27 -7 -3 -20 2 -29 10 -8 8 -17 12 -21 9 -3 -4
-6 -2 -6 4 0 5 -34 10 -80 10 -64 1 -82 -2 -91 -15 -10 -16 -10 -16 -5 0 3 12
-1 16 -14 15 -15 -1 -17 -4 -7 -16 10 -12 9 -13 -13 -1 -21 11 -23 11 -13 -1
9 -12 2 -14 -48 -14 -46 1 -59 -3 -59 -15 0 -13 -1 -13 -10 0 -9 14 -14 7 -11
-13 1 -5 -3 -6 -8 -2 -6 3 -9 11 -7 18 1 7 1 9 -1 4 -3 -4 -10 -4 -16 0 -6 4
-8 1 -5 -9 4 -10 0 -14 -15 -13 -12 2 -21 8 -20 14 4 14 -3 14 -27 1 -15 -8
-18 -7 -15 2 4 10 -12 13 -62 13 -50 0 -67 4 -70 15 -4 12 -3 12 5 2 8 -11 10
-11 15 0 7 21 -205 22 -230 1z m-405 -348 c-3 -3 -9 2 -12 12 -6 14 -5 15 5 6
7 -7 10 -15 7 -18z m1992 -609 c0 -3 -4 -8 -10 -11 -5 -3 -10 -1 -10 4 0 6 5
11 10 11 6 0 10 -2 10 -4z m-2253 -611 c0 -8 -4 -12 -9 -9 -5 3 -6 10 -3 15 9
13 12 11 12 -6z m26 -240 c-3 -9 -8 -14 -10 -11 -3 3 -2 9 2 15 9 16 15 13 8
-4z m4 -47 c2 -17 0 -19 -7 -8 -5 8 -6 18 -4 22 8 12 10 10 11 -14z m563 -462
c0 -3 -4 -8 -10 -11 -5 -3 -10 -1 -10 4 0 6 5 11 10 11 6 0 10 -2 10 -4z m560
-30 c0 -2 -7 -7 -16 -10 -8 -3 -12 -2 -9 4 6 10 25 14 25 6z"/>
<path d="M1256 2453 c-6 -14 -5 -15 5 -6 7 7 10 15 7 18 -3 3 -9 -2 -12 -12z"/>
<path d="M2475 1100 c-3 -5 -1 -10 4 -10 6 0 11 5 11 10 0 6 -2 10 -4 10 -3 0
-8 -4 -11 -10z"/>
<path d="M173 851 c0 -11 5 -18 9 -15 4 3 5 11 1 19 -7 21 -12 19 -10 -4z"/>
<path d="M1226 121 c-3 -5 1 -11 9 -14 9 -4 12 -1 8 9 -6 16 -10 17 -17 5z"/>
<path d="M1254 123 c4 -4 16 -8 28 -10 28 -4 18 6 -12 12 -12 2 -20 1 -16 -2z"/>
</g>
</svg>
